<svg width="320" height="249" viewBox="0 0 320 249" fill="none" xmlns="http://www.w3.org/2000/svg">
<path fill-rule="evenodd" clip-rule="evenodd" d="M94.6529 248.11C60.34 248.11 28.1307 240.786 0.259766 227.955L113.653 124.456C97.9906 111.607 87.9982 92.1014 87.9982 70.2623C87.9982 48.0254 98.3578 28.2082 114.514 15.3736V0.202384H157.582C157.741 0.201324 157.9 0.200793 158.06 0.200793C175.574 0.200793 191.587 6.62746 203.87 17.2513C216.153 6.62841 232.165 0.202384 249.679 0.202384H249.783L249.786 0.199951L249.788 0.202384H293.225V15.3753C309.381 28.2099 319.74 48.0271 319.74 70.2638C319.74 98.2268 303.358 122.364 279.668 133.601C271.198 158.608 255.266 181.1 233.942 199.395V231.727H180.338C154.548 242.211 125.447 248.11 94.6529 248.11ZM158.059 124.157C170.813 124.157 182.532 119.727 191.762 112.322L203.761 139.34L215.817 112.194C225.071 119.676 236.851 124.157 249.678 124.157C279.443 124.157 303.571 100.029 303.571 70.264C303.571 40.4995 279.443 16.3706 249.678 16.3706C230.338 16.3706 213.377 26.5582 203.869 41.8598C194.361 26.5582 177.4 16.3706 158.059 16.3706C128.295 16.3706 104.166 40.4995 104.166 70.264C104.166 100.029 128.295 124.157 158.059 124.157ZM158.059 107.989C178.894 107.989 195.784 91.0988 195.784 70.2636C195.784 49.4285 178.894 32.5383 158.059 32.5383C137.224 32.5383 120.334 49.4285 120.334 70.2636C120.334 91.0988 137.224 107.989 158.059 107.989ZM158.059 91.8211C169.965 91.8211 179.617 82.1696 179.617 70.2637C179.617 58.3579 169.965 48.7064 158.059 48.7064C146.153 48.7064 136.502 58.3579 136.502 70.2637C136.502 82.1696 146.153 91.8211 158.059 91.8211ZM287.403 70.2636C287.403 91.0988 270.513 107.989 249.678 107.989C228.843 107.989 211.952 91.0988 211.952 70.2636C211.952 49.4285 228.843 32.5383 249.678 32.5383C270.513 32.5383 287.403 49.4285 287.403 70.2636ZM271.235 70.2637C271.235 82.1696 261.584 91.8211 249.678 91.8211C237.772 91.8211 228.12 82.1696 228.12 70.2637C228.12 58.3579 237.772 48.7064 249.678 48.7064C261.584 48.7064 271.235 58.3579 271.235 70.2637Z" fill="white"/>
</svg>
